<svg width="16" height="17" viewBox="0 0 16 17" fill="none" xmlns="http://www.w3.org/2000/svg">
<g clip-path="url(#clip0_2046_453)">
<path d="M14.1866 4.53332L7.8266 11.2908C7.19327 11.9637 5.31325 12.2754 4.89325 11.8291C4.47325 11.3829 4.75991 9.38537 5.39325 8.71245L11.7599 1.94788C11.9169 1.76588 12.107 1.61958 12.3187 1.51779C12.5304 1.41601 12.7593 1.36083 12.9917 1.35563C13.2239 1.35044 13.4549 1.3953 13.6704 1.48753C13.8859 1.57977 14.0817 1.71747 14.2457 1.89228C14.4098 2.0671 14.5389 2.27542 14.6251 2.50468C14.7113 2.73395 14.7529 2.97938 14.7474 3.2262C14.7419 3.47302 14.6893 3.71611 14.5929 3.94076C14.4965 4.16541 14.3583 4.36699 14.1866 4.53332Z" stroke="white" stroke-linecap="round" stroke-linejoin="round"/>
<path d="M7.33398 2.83325H4.00065C3.2934 2.83325 2.61517 3.13176 2.11507 3.66311C1.61498 4.19447 1.33398 4.91514 1.33398 5.66659V12.7499C1.33398 13.5014 1.61498 14.222 2.11507 14.7534C2.61517 15.2848 3.2934 15.5833 4.00065 15.5833H11.334C12.8073 15.5833 13.334 14.3083 13.334 12.7499V9.20825" stroke="white" stroke-linecap="round" stroke-linejoin="round"/>
</g>
<defs>
<clipPath id="clip0_2046_453">
<rect width="16" height="17" fill="white"/>
</clipPath>
</defs>
</svg>
